# xmcd
#
# Track frame offsets: 
#        150
#        12140
#        24830
#        34935
#        46665
#        59677
#        73477
#        85107
#        94882
#        108357
#        118717
#        130387
#        141530
#        154867
#        168350
#        180200
#        192622
#        207390
#        221487
#        234817
#
# Disc length: 3486 seconds
#
# Revision: 3
# Processed by: cddbd v1.5.2PL0 Copyright (c) Steve Scherf et al.
# Submitted via: ExactAudioCopy v1.0b1
#
DISCID=1b0d9c14
DTITLE=Howlin' Wolf - His Best, Vol.2
DYEAR=1999
DGENRE=Blues
TTITLE0=Howlin' Wolf Boogie (mono)
TTITLE1=Mr. Highway Man (mono)
TTITLE2=All Night Boogie (All Night Long) (mono)
TTITLE3=You Gonna Wreck My Life (No Place to Go) (alt) (mono)
TTITLE4=I'm The Wolf (mono)
TTITLE5=Rocking' Daddy (mono)
TTITLE6=Who Will Be Next (mono)
TTITLE7=The Natchez Burning (mono)
TTITLE8=Tell Me (mono)
TTITLE9=I've Been Abused (stereo)
TTITLE10=Down In The Bottom (stereo)
TTITLE11=You'll Be Mine (stereo)
TTITLE12=Just Like I Treat You (stereo)
TTITLE13=Tail Dragger (mono)
TTITLE14=My Country Sugar Mama (stereo)
TTITLE15=Louise (stereo)
TTITLE16=Don't Laugh At Me (stereo)
TTITLE17=Commit A Crime (stereo)
TTITLE18=New Crawlin' King Snake (stereo)
TTITLE19=The Red Rooster (1970) (stereo)
EXTD=
EXTT0=
EXTT1=
EXTT2=
EXTT3=
EXTT4=
EXTT5=
EXTT6=
EXTT7=
EXTT8=
EXTT9=
EXTT10=
EXTT11=
EXTT12=
EXTT13=
EXTT14=
EXTT15=
EXTT16=
EXTT17=
EXTT18=
EXTT19=
PLAYORDER=
